<?xml version="1.0" encoding="utf-8"?>
<!-- Generator: Adobe Illustrator 24.0.0, SVG Export Plug-In . SVG Version: 6.00 Build 0)  -->
<svg version="1.1" id="Layer_1" xmlns="http://www.w3.org/2000/svg" xmlns:xlink="http://www.w3.org/1999/xlink" x="0px" y="0px"
	 viewBox="0 0 1056.7 169.5" style="enable-background:new 0 0 1056.7 169.5;" xml:space="preserve">
<style type="text/css">
	.st0{fill:#06C167;}
	.st1{fill:#142328;}
</style>
<title>UBE_001_Logo_Horizontal_RGB_Master</title>
<path class="st0" d="M791.6,105c0-21-16.8-37.5-37.9-37.5c-20.7-0.3-37.8,16.2-38.2,36.9c-0.3,20.7,16.2,37.8,36.9,38.2
	c0.4,0,0.8,0,1.2,0C774.8,142.5,791.6,126,791.6,105 M822.6,43.5v122.9h-31.6v-11.1c-11.3,9.3-25.4,14.3-40,14.2
	c-37.4,0-66.6-28.7-66.6-64.6s29.3-64.6,66.6-64.6c14.6-0.1,28.7,4.9,40,14.2V43.5H822.6z M927.6,138.5h-23.8
	c-7.2,0-11.9-3.1-11.9-9.7V71.4h35.6V43.5H892v-35h-31.9v35h-24.1v27.9h24.1v65.4c0,16.5,11.9,29.6,33.3,29.6h34.2V138.5z
	 M999.6,169.5c36.5,0,57.1-17.1,57.1-40.7c0-16.8-12.2-29.3-37.7-34.7l-26.9-5.4c-15.6-2.8-20.6-5.7-20.6-11.4c0-7.4,7.5-12,21.4-12
	c15.1,0,26.1,4,29.3,17.6h31.6c-1.7-25.6-20.6-42.7-58.8-42.7c-33,0-56.2,13.4-56.2,39.2c0,17.9,12.8,29.6,40.3,35.3l30.1,6.8
	c11.9,2.3,15.1,5.4,15.1,10.2c0,7.7-9,12.5-23.5,12.5c-18.2,0-28.7-4-32.7-17.6h-31.9C940.8,152.4,960.2,169.5,999.6,169.5 M557,0
	h119.1v28.5h-86.9v40.7h84.6v27.7h-84.6V138h86.9v28.4H557V0z"/>
<path class="st1" d="M500.4,66.5V44.2h-8.5c-13.6,0-23.5,6.2-29.5,15.9v-15h-24.2v121.1h24.4V97.4c0-18.8,11.6-30.9,27.6-30.9H500.4
	z M324.7,94.5c4.4-18.5,19.6-30.9,37.7-30.9S395.9,76,400,94.5H324.7z M363,42.8c-34.7-0.3-63.1,27.6-63.4,62.3c0,0.2,0,0.4,0,0.6
	c0,36.1,28.5,63.2,65.6,63.2c22.5,0,40.9-9.7,53.2-25.9l-17.7-12.8c-9.2,12.1-21.3,17.8-35.6,17.8c-20.2,0.1-37.6-14.5-40.9-34.4
	h100.4v-7.8C424.6,69.6,398.5,42.8,363,42.8 M223.4,147.9c-23.3,0.2-42.3-18.4-42.6-41.7c0-0.1,0-0.2,0-0.3c0-23.5,19.1-42,42.6-42
	c23.2,0,42,18.8,42,42C265.4,129.2,246.6,148,223.4,147.9 M156.8,166.3H181v-15.2c11.7,11.6,27.5,18.1,44,18
	c36.3,0,64.8-28.3,64.8-63.2c0-35.1-28.5-63.4-64.8-63.4c-16.4-0.1-32.2,6.4-43.8,18V0h-24.4L156.8,166.3z M71,146.8
	c23.5,0,41.6-17.8,41.6-44.2V0H138v166.2h-25.2v-15.5C101.5,162.4,85.8,169,68.1,169C31.8,169,4,143.2,4,104V0h25.4v102.6
	C29.4,129.4,47.3,146.8,71,146.8"/>
</svg>
